<svg width="14" height="26" viewBox="0 0 14 26" fill="none" xmlns="http://www.w3.org/2000/svg">
<path d="M0.447062 13.8476H3.48502V25.5806C3.48502 25.8123 3.68509 26 3.93203 26H9.08302C9.32996 26 9.53003 25.8123 9.53003 25.5806V13.9029H13.0225C13.2495 13.9029 13.4406 13.743 13.4665 13.5314L13.997 9.21192C14.0115 9.09309 13.9714 8.97406 13.8867 8.88489C13.8018 8.79567 13.6804 8.74458 13.553 8.74458H9.53024V6.03687C9.53024 5.22067 9.99869 4.80675 10.9228 4.80675C11.0545 4.80675 13.553 4.80675 13.553 4.80675C13.7999 4.80675 14 4.61896 14 4.3874V0.422449C14 0.190785 13.7999 0.00309766 13.553 0.00309766H9.92815C9.9026 0.00192969 9.84582 0 9.76214 0C9.1332 0 6.94703 0.115832 5.22011 1.60621C3.30671 3.25782 3.57271 5.23529 3.63626 5.57817V8.74448H0.447009C0.200066 8.74448 0 8.93217 0 9.16383V13.4282C5.41303e-05 13.6598 0.20012 13.8476 0.447062 13.8476Z" fill="#385C8E"/>
</svg>
