<svg width="27" height="28" viewBox="0 0 27 28" fill="none" xmlns="http://www.w3.org/2000/svg">
<path d="M5.89891 16.75L4.98146 20.175L1.62818 20.2459C0.626046 18.3872 0.0576172 16.2606 0.0576172 14.0006C0.0576172 11.8153 0.589084 9.75452 1.53115 7.93994H1.53187L4.51722 8.48726L5.82499 11.4547C5.55128 12.2527 5.40209 13.1093 5.40209 14.0006C5.40219 14.968 5.57743 15.8949 5.89891 16.75Z" fill="#FBBB00"/>
<path d="M26.1848 11.5386C26.3361 12.3358 26.415 13.1591 26.415 14.0005C26.415 14.944 26.3158 15.8643 26.1269 16.7521C25.4853 19.773 23.809 22.4109 21.4869 24.2776L21.4861 24.2769L17.7259 24.085L17.1937 20.7628C18.7346 19.8592 19.9388 18.445 20.5731 16.7521H13.5262V11.5386H20.6759H26.1848Z" fill="#518EF8"/>
<path d="M21.4854 24.277L21.4861 24.2777C19.2277 26.093 16.3588 27.1791 13.2357 27.1791C8.21703 27.1791 3.85364 24.374 1.62775 20.2459L5.89848 16.75C7.0114 19.7202 9.87665 21.8346 13.2357 21.8346C14.6796 21.8346 16.0322 21.4443 17.1929 20.7629L21.4854 24.277Z" fill="#28B446"/>
<path d="M21.6476 3.85622L17.3783 7.35142C16.1771 6.60055 14.7571 6.16679 13.2358 6.16679C9.80067 6.16679 6.88183 8.37817 5.82466 11.4549L1.53148 7.94013H1.53076C3.72407 3.71141 8.14249 0.822266 13.2358 0.822266C16.4334 0.822266 19.3653 1.96128 21.6476 3.85622Z" fill="#F14336"/>
</svg>
