<svg width="388" height="125" viewBox="0 0 388 125" fill="none" xmlns="http://www.w3.org/2000/svg">
<path d="M81.5684 84.7425H70.8767V60.675C71.5216 59.4057 71.8878 57.9721 71.8878 56.4536C71.8878 54.9898 71.5489 53.6039 70.947 52.3691C72.5229 50.438 73.6962 48.4599 74.4531 46.4466C76.3702 41.3461 75.5147 36.0991 71.9796 31.2732L54.9213 7.98735C51.1479 2.83662 45.6901 0 39.553 0C34.6035 0 29.5476 1.78717 24.932 5.16826C19.9923 8.78677 16.5638 13.5807 15.2781 18.6671C13.8713 24.2315 15.0122 29.7449 18.5774 34.6115L35.6357 57.8973C39.0177 62.5141 43.3344 64.8548 48.4662 64.8548C50.3081 64.8548 52.22 64.5452 54.1932 63.9355V84.7425H43.5015C41.44 84.7425 39.7626 86.4198 39.7626 88.4813V96.2609C39.7626 98.3224 41.44 99.9998 43.5015 99.9998H81.5684C83.6299 99.9998 85.3072 98.3224 85.3072 96.2609V88.4813C85.3072 86.4198 83.6299 84.7425 81.5684 84.7425ZM57.8556 56.4534C57.8556 53.8731 59.9548 51.7742 62.5348 51.7742C65.1149 51.7742 67.214 53.8733 67.214 56.4534C67.214 59.0334 65.1149 61.1325 62.5348 61.1325C59.9548 61.1325 57.8556 59.0337 57.8556 56.4534ZM39.7311 55.5603L47.321 50.0001C48.362 49.2374 48.5877 47.7753 47.825 46.734C47.0623 45.6927 45.6002 45.4672 44.5589 46.23L36.9599 51.7969L34.1621 47.9779L41.7613 42.411C42.8023 41.6482 43.0281 40.1861 42.2653 39.1448C41.5026 38.1036 40.0405 37.8783 38.9992 38.6408L31.4 44.2077L28.6024 40.3887L36.2014 34.8218C37.2424 34.0591 37.4682 32.5969 36.7054 31.5557C35.9427 30.5144 34.4806 30.2891 33.4393 31.0516L25.8403 36.6185L23.043 32.7995L30.642 27.2329C31.683 26.4701 31.9087 25.008 31.146 23.9667C30.3833 22.9257 28.9211 22.6997 27.8799 23.4627L20.58 28.8104C19.3069 25.9334 19.0347 22.8752 19.8089 19.8126C20.8289 15.778 23.6293 11.9162 27.6939 8.93842C31.4481 6.18803 35.6597 4.67356 39.553 4.67356C43.0704 4.67356 46.2108 5.86322 48.7908 8.14415L41.4858 13.4954C40.4448 14.2581 40.219 15.7202 40.9817 16.7615C41.4395 17.3864 42.1492 17.7175 42.8687 17.7175C43.348 17.7175 43.8315 17.5705 44.2476 17.2655L51.8466 11.6989L54.6444 15.5179L47.0455 21.0848C46.0044 21.8475 45.7787 23.3096 46.5414 24.3509C46.9992 24.9758 47.7089 25.3069 48.4284 25.3069C48.9076 25.3069 49.3911 25.1601 49.8073 24.8549L57.4063 19.2883L60.2039 23.1073L52.6049 28.6742C51.5639 29.4369 51.3381 30.899 52.1009 31.9403C52.5586 32.5652 53.2683 32.8963 53.9878 32.8963C54.4671 32.8963 54.9506 32.7493 55.3667 32.4443L62.9657 26.8774L65.7635 30.6967L58.1643 36.2633C57.1233 37.0261 56.8976 38.4882 57.6603 39.5295C58.1181 40.1543 58.8277 40.4854 59.5472 40.4854C60.0265 40.4854 60.51 40.3387 60.9262 40.0335L68.5153 34.4741C70.8811 37.9138 71.3952 41.2975 70.0779 44.8024C69.5882 46.1054 68.8271 47.4283 67.8288 48.749C66.3223 47.7105 64.4986 47.1009 62.5348 47.1009C57.3778 47.1009 53.1821 51.2966 53.1821 56.4536C53.1821 57.4077 53.3265 58.3284 53.5931 59.1963C51.7765 59.8436 50.0538 60.1815 48.466 60.1815C45.0122 60.1815 42.1508 58.6656 39.7311 55.5603ZM80.6337 95.3264H44.4362V89.4163H55.1277C57.1892 89.4163 58.8665 87.7389 58.8665 85.6774V65.056C59.9936 65.5383 61.2332 65.8063 62.5348 65.8063C63.8364 65.8063 65.0761 65.5385 66.2031 65.056V85.6772C66.2031 87.7387 67.8804 89.416 69.9419 89.416H80.6337V95.3264Z" fill="#349F7F"/>
<path d="M147.016 93.816C145.72 93.288 144.616 92.472 143.704 91.368C142.792 90.264 142.024 89.064 141.4 87.768C140.776 86.424 140.272 85.032 139.888 83.592C139.504 82.104 139.192 80.784 138.952 79.632C138.808 79.008 138.64 78.048 138.448 76.752C138.304 75.408 138.112 73.896 137.872 72.216C137.68 70.536 137.488 68.784 137.296 66.96C137.104 65.136 136.888 63.408 136.648 61.776L136.144 57.24C136 55.944 135.904 54.96 135.856 54.288L128.872 82.656L128.512 83.304C128.32 83.64 128.08 84.024 127.792 84.456C127.552 84.888 127.24 85.296 126.856 85.68C126.52 86.064 126.16 86.352 125.776 86.544C125.44 86.688 125.08 86.712 124.696 86.616C124.36 86.52 124.048 86.208 123.76 85.68L108.568 55.296L104.536 85.68C104.44 86.16 104.224 86.496 103.888 86.688C103.552 86.832 103.192 86.832 102.808 86.688C102.472 86.496 102.16 86.232 101.872 85.896C101.584 85.56 101.464 85.152 101.512 84.672L106.624 47.232C106.624 47.04 106.744 46.824 106.984 46.584C107.272 46.344 107.584 46.152 107.92 46.008C108.256 45.864 108.592 45.792 108.928 45.792C109.264 45.744 109.48 45.864 109.576 46.152L125.56 81.576L134.848 46.152C134.896 46.056 135.112 45.768 135.496 45.288C135.88 44.76 136.312 44.28 136.792 43.848C137.272 43.416 137.704 43.104 138.088 42.912C138.52 42.72 138.808 42.816 138.952 43.2L139.888 47.232C140.032 49.872 140.152 52.944 140.248 56.448C140.344 59.952 140.56 63.552 140.896 67.248C141.232 70.944 141.784 74.568 142.552 78.12C143.368 81.672 144.544 84.864 146.08 87.696C146.224 87.888 146.416 88.152 146.656 88.488C146.896 88.824 147.184 89.136 147.52 89.424C147.856 89.712 148.168 89.976 148.456 90.216C148.792 90.504 149.008 90.672 149.104 90.72C149.488 90.912 149.992 90.936 150.616 90.792C151.288 90.648 151.984 90.528 152.704 90.432C153.424 90.384 154.096 90.432 154.72 90.576C155.344 90.768 155.824 91.152 156.16 91.728C156.496 92.4 156.52 92.904 156.232 93.24C155.992 93.624 155.584 93.912 155.008 94.104C154.432 94.296 153.736 94.392 152.92 94.392C152.152 94.44 151.384 94.44 150.616 94.392C149.848 94.344 149.128 94.248 148.456 94.104C147.832 94.008 147.352 93.912 147.016 93.816ZM162.684 124.128C161.916 123.648 161.268 122.856 160.74 121.752C160.26 120.696 159.852 119.568 159.516 118.368C159.228 117.168 159.012 115.968 158.868 114.768C158.724 113.616 158.628 112.68 158.58 111.96C158.484 108.648 158.436 105.12 158.436 101.376C158.484 97.68 158.82 93.984 159.444 90.288C160.116 86.64 161.1 83.136 162.396 79.776C163.692 76.368 165.468 73.272 167.724 70.488C168.924 69 170.1 67.68 171.252 66.528C172.404 65.376 173.604 64.32 174.852 63.36C176.148 62.4 177.516 61.584 178.956 60.912C180.444 60.24 182.1 59.712 183.924 59.328C185.556 58.992 186.804 59.184 187.668 59.904C188.58 60.576 189.18 61.608 189.468 63C189.756 64.344 189.756 65.976 189.468 67.896C189.18 69.768 188.7 71.712 188.028 73.728C187.356 75.696 186.54 77.64 185.58 79.56C184.668 81.48 183.66 83.16 182.556 84.6C181.5 86.04 180.372 87.168 179.172 87.984C178.02 88.752 176.916 88.992 175.86 88.704C175.668 88.464 175.812 87.84 176.292 86.832C176.82 85.776 177.492 84.528 178.308 83.088C179.172 81.6 180.084 79.944 181.044 78.12C182.052 76.296 182.964 74.472 183.78 72.648C184.596 70.776 185.22 68.952 185.652 67.176C186.132 65.352 186.228 63.768 185.94 62.424C185.844 61.752 185.508 61.368 184.932 61.272C184.356 61.176 183.708 61.2 182.988 61.344C182.316 61.488 181.668 61.68 181.044 61.92C180.42 62.16 180.036 62.328 179.892 62.424C176.916 63.672 174.348 65.52 172.188 67.968C170.028 70.368 168.204 73.152 166.716 76.32C165.276 79.44 164.124 82.776 163.26 86.328C162.444 89.832 161.868 93.312 161.532 96.768C161.196 100.224 161.052 103.512 161.1 106.632C161.196 109.752 161.436 112.44 161.82 114.696C162.252 117 162.804 118.728 163.476 119.88C164.148 121.08 164.892 121.488 165.708 121.104C165.804 121.056 165.972 120.888 166.212 120.6C166.452 120.312 166.62 120.144 166.716 120.096C167.292 118.416 167.748 116.592 168.084 114.624C168.42 112.704 168.66 110.688 168.804 108.576C168.996 106.512 169.116 104.4 169.164 102.24C169.212 100.128 169.212 98.064 169.164 96.048C169.116 94.032 169.044 92.136 168.948 90.36C168.9 88.584 168.828 87.024 168.732 85.68C168.588 85.344 168.468 84.816 168.372 84.096C168.324 83.376 168.3 82.608 168.3 81.792C168.3 80.928 168.324 80.088 168.372 79.272C168.42 78.408 168.54 77.76 168.732 77.328C168.924 76.896 169.188 76.752 169.524 76.896C169.86 76.992 170.268 77.544 170.748 78.552C170.796 79.032 170.868 79.896 170.964 81.144C171.108 82.392 171.228 83.736 171.324 85.176C171.42 86.568 171.516 87.888 171.612 89.136C171.708 90.384 171.756 91.248 171.756 91.728C171.804 92.304 171.828 93.072 171.828 94.032C171.828 94.992 171.828 96 171.828 97.056V103.824C171.828 104.784 171.828 105.648 171.828 106.416C171.828 107.184 171.804 107.664 171.756 107.856C171.756 108.288 171.66 109.008 171.468 110.016C171.324 111.024 171.156 112.104 170.964 113.256C170.772 114.456 170.556 115.608 170.316 116.712C170.076 117.816 169.884 118.584 169.74 119.016C169.548 119.832 169.236 120.672 168.804 121.536C168.372 122.4 167.844 123.12 167.22 123.696C166.596 124.32 165.9 124.68 165.132 124.776C164.412 124.92 163.596 124.704 162.684 124.128ZM196.095 93.816C195.135 93.048 194.343 92.136 193.719 91.08C193.095 90.072 192.639 88.992 192.351 87.84C192.063 86.64 191.919 85.44 191.919 84.24C191.919 82.992 191.967 81.768 192.063 80.568C192.399 80.376 192.759 80.544 193.143 81.072C193.527 81.6 193.935 82.32 194.367 83.232C194.847 84.144 195.351 85.176 195.879 86.328C196.455 87.48 197.103 88.536 197.823 89.496C198.543 90.408 199.383 91.128 200.343 91.656C201.303 92.232 202.359 92.4 203.511 92.16C204.663 91.968 205.959 91.296 207.399 90.144C208.839 88.992 210.471 87.168 212.295 84.672C214.791 81.36 216.135 78.456 216.327 75.96C216.519 73.416 215.895 71.496 214.455 70.2C213.063 68.904 210.999 68.352 208.263 68.544C205.575 68.688 202.551 69.672 199.191 71.496C198.327 71.496 198.063 71.184 198.399 70.56C198.735 69.936 199.383 69.12 200.343 68.112C201.303 67.104 202.455 66 203.799 64.8C205.191 63.6 206.511 62.4 207.759 61.2C209.007 59.952 210.063 58.824 210.927 57.816C211.839 56.76 212.295 55.92 212.295 55.296V54.288C211.767 54.096 211.095 54.144 210.279 54.432C209.511 54.72 208.695 55.104 207.831 55.584C206.967 56.064 206.103 56.568 205.239 57.096C204.423 57.624 203.631 58.056 202.863 58.392C202.095 58.68 201.375 58.776 200.703 58.68C200.079 58.584 199.575 58.128 199.191 57.312C198.999 57.024 198.975 56.736 199.119 56.448C199.311 56.112 199.527 55.8 199.767 55.512C200.007 55.176 200.271 54.912 200.559 54.72L201.207 54.288C201.687 54.144 202.551 53.88 203.799 53.496C205.047 53.064 206.367 52.632 207.759 52.2C209.199 51.768 210.519 51.384 211.719 51.048C212.967 50.664 213.831 50.376 214.311 50.184C214.503 50.184 214.839 50.184 215.319 50.184C215.847 50.184 216.207 50.184 216.399 50.184C216.687 51.336 216.615 52.536 216.183 53.784C215.799 54.984 215.247 56.184 214.527 57.384C213.807 58.584 213.039 59.736 212.223 60.84C211.455 61.896 210.807 62.76 210.279 63.432C210.759 63.24 211.311 63.312 211.935 63.648C212.559 63.984 213.039 64.248 213.375 64.44C215.151 65.88 216.423 67.536 217.191 69.408C217.959 71.232 218.295 73.128 218.199 75.096C218.151 77.016 217.767 78.96 217.047 80.928C216.327 82.896 215.343 84.744 214.095 86.472C212.895 88.2 211.527 89.736 209.991 91.08C208.503 92.472 206.943 93.528 205.311 94.248C203.727 94.968 202.119 95.328 200.487 95.328C198.903 95.328 197.439 94.824 196.095 93.816Z" fill="#CE5851"/>
<path d="M261.558 103.824C260.118 102.912 259.326 101.496 259.182 99.576C259.038 97.704 259.278 95.592 259.902 93.24C260.574 90.888 261.486 88.44 262.638 85.896C263.838 83.352 265.086 80.976 266.382 78.768C267.678 76.512 268.902 74.544 270.054 72.864C271.254 71.184 272.166 70.056 272.79 69.48C272.79 69.288 272.79 68.928 272.79 68.4C272.79 67.872 272.79 67.536 272.79 67.392C272.694 66.912 272.55 66.096 272.358 64.944C272.214 63.792 272.022 62.568 271.782 61.272C271.59 59.976 271.374 58.776 271.134 57.672C270.942 56.52 270.798 55.704 270.702 55.224C270.51 54.84 270.222 54.552 269.838 54.36C269.502 54.12 269.118 54.096 268.686 54.288L252.486 60.264C252.054 60.456 251.646 60.432 251.262 60.192C250.926 59.952 250.662 59.64 250.47 59.256C250.326 58.872 250.326 58.488 250.47 58.104C250.614 57.72 250.926 57.432 251.406 57.24L284.886 46.152H287.91C288.198 46.92 288.27 47.496 288.126 47.88C288.03 48.264 287.814 48.528 287.478 48.672C287.142 48.816 286.734 48.912 286.254 48.96C285.822 49.008 285.366 49.08 284.886 49.176C284.502 49.32 283.83 49.536 282.87 49.824C281.91 50.064 280.878 50.352 279.774 50.688C278.67 51.024 277.638 51.336 276.678 51.624C275.766 51.912 275.118 52.104 274.734 52.2C274.542 54.408 274.614 56.64 274.95 58.896C275.286 61.152 275.91 63.312 276.822 65.376L286.902 60.264C287.43 59.976 287.958 59.952 288.486 60.192C289.014 60.384 289.398 60.672 289.638 61.056C289.926 61.44 290.022 61.872 289.926 62.352C289.83 62.784 289.494 63.096 288.918 63.288C288.006 63.624 286.926 63.984 285.678 64.368C284.478 64.752 283.278 65.208 282.078 65.736C280.878 66.216 279.774 66.84 278.766 67.608C277.806 68.328 277.158 69.264 276.822 70.416C276.678 70.8 276.534 71.712 276.39 73.152C276.294 74.592 276.15 76.32 275.958 78.336C275.814 80.304 275.574 82.488 275.238 84.888C274.95 87.24 274.566 89.544 274.086 91.8C273.654 94.104 273.078 96.24 272.358 98.208C271.686 100.224 270.822 101.832 269.766 103.032C268.758 104.28 267.582 105 266.238 105.192C264.894 105.432 263.334 104.976 261.558 103.824ZM263.574 100.728C264.102 101.832 264.702 102.216 265.374 101.88C266.046 101.544 266.718 100.8 267.39 99.648C268.062 98.544 268.71 97.128 269.334 95.4C269.958 93.72 270.51 92.064 270.99 90.432C271.47 88.8 271.878 87.336 272.214 86.04C272.55 84.744 272.742 83.904 272.79 83.52C272.79 83.184 272.79 82.56 272.79 81.648V75.456C272.79 74.544 272.79 73.872 272.79 73.44C271.11 75.168 269.622 77.136 268.326 79.344C267.078 81.504 266.046 83.784 265.23 86.184C264.462 88.584 263.91 91.032 263.574 93.528C263.238 96.024 263.238 98.424 263.574 100.728ZM293.217 91.728C292.209 90.336 291.609 88.752 291.417 86.976C291.225 85.2 291.225 83.352 291.417 81.432C291.609 79.464 291.921 77.496 292.353 75.528C292.785 73.512 293.169 71.592 293.505 69.768C293.841 67.896 294.009 66.168 294.009 64.584C294.057 62.952 293.793 61.56 293.217 60.408C292.929 59.784 292.497 59.496 291.921 59.544C291.393 59.544 290.817 59.616 290.193 59.76C289.617 59.856 289.041 59.904 288.465 59.904C287.889 59.856 287.361 59.472 286.88 58.752C286.928 58.608 287.072 58.416 287.312 58.176C287.553 57.936 287.721 57.792 287.817 57.744C291.321 57.216 294.249 57.576 296.601 58.824C298.953 60.024 300.825 61.752 302.217 64.008C303.657 66.216 304.617 68.76 305.097 71.64C305.625 74.52 305.817 77.376 305.673 80.208C305.529 83.04 305.073 85.68 304.305 88.128C303.585 90.528 302.649 92.376 301.497 93.672C300.393 95.016 299.121 95.616 297.681 95.472C296.241 95.328 294.753 94.08 293.217 91.728ZM296.241 89.712C296.289 89.808 296.409 89.952 296.601 90.144C296.793 90.336 296.985 90.552 297.177 90.792C297.369 91.032 297.561 91.224 297.753 91.368C297.945 91.56 298.089 91.68 298.185 91.728C299.673 90.912 300.753 89.808 301.425 88.416C302.145 87.024 302.553 85.488 302.649 83.808C302.793 82.08 302.721 80.28 302.433 78.408C302.145 76.488 301.737 74.664 301.209 72.936C300.681 71.16 300.033 69.552 299.265 68.112C298.545 66.624 297.873 65.4 297.249 64.44C297.201 64.968 297.105 65.76 296.961 66.816C296.865 67.824 296.745 69 296.601 70.344C296.505 71.688 296.385 73.104 296.241 74.592C296.097 76.032 295.953 77.424 295.809 78.768C295.665 80.112 295.521 81.312 295.377 82.368C295.281 83.424 295.209 84.192 295.161 84.672C295.161 85.056 295.185 85.512 295.233 86.04C295.281 86.52 295.353 87 295.449 87.48C295.593 87.912 295.737 88.344 295.881 88.776C296.025 89.16 296.145 89.472 296.241 89.712ZM312.678 90.72C312.726 90.096 312.87 89.208 313.11 88.056C313.398 86.856 313.638 85.584 313.83 84.24C314.022 82.896 314.142 81.552 314.19 80.208C314.238 78.864 314.118 77.736 313.83 76.824C313.542 75.912 312.99 75.312 312.174 75.024C311.406 74.736 310.254 74.904 308.718 75.528C307.854 75.336 307.374 75.024 307.278 74.592C307.134 74.16 307.23 73.68 307.566 73.152C307.95 72.576 308.454 71.976 309.078 71.352C309.702 70.68 310.35 70.008 311.022 69.336C311.694 68.616 312.294 67.944 312.822 67.32C313.35 66.648 313.638 66 313.686 65.376C313.638 65.088 313.566 64.416 313.47 63.36C313.422 62.304 313.326 61.104 313.182 59.76C313.038 58.368 312.87 56.904 312.678 55.368C312.534 53.784 312.39 52.296 312.246 50.904C312.102 49.512 311.982 48.288 311.886 47.232C311.79 46.176 311.718 45.48 311.67 45.144C311.67 44.616 311.67 44.136 311.67 43.704C311.718 43.272 311.862 42.912 312.102 42.624C312.342 42.288 312.654 42.072 313.038 41.976C313.47 41.88 314.022 41.952 314.694 42.192C314.886 43.632 315.078 45.312 315.27 47.232C315.462 49.104 315.678 51.024 315.918 52.992C316.158 54.96 316.422 56.928 316.71 58.896C316.998 60.864 317.334 62.712 317.718 64.44C318.102 64.152 318.558 63.648 319.086 62.928C319.662 62.16 320.262 61.32 320.886 60.408C321.51 59.448 322.158 58.512 322.83 57.6C323.55 56.688 324.222 55.968 324.846 55.44C325.47 54.864 326.046 54.528 326.574 54.432C327.102 54.336 327.534 54.624 327.87 55.296C327.918 55.392 327.942 55.56 327.942 55.8C327.942 56.04 327.918 56.232 327.87 56.376C327.39 57.912 326.598 59.352 325.494 60.696C324.39 61.992 323.262 63.264 322.11 64.512C320.958 65.76 319.95 67.032 319.086 68.328C318.222 69.624 317.766 71.016 317.718 72.504C318.054 72.792 318.582 73.32 319.302 74.088L324.342 79.128C325.302 80.088 326.214 81 327.078 81.864C327.942 82.728 328.686 83.496 329.31 84.168L330.894 85.68C331.086 85.872 331.446 86.232 331.974 86.76C332.502 87.288 332.958 87.864 333.342 88.488C333.726 89.112 333.918 89.712 333.918 90.288C333.966 90.864 333.63 91.344 332.91 91.728C332.814 91.776 332.646 91.8 332.406 91.8C332.166 91.8 331.998 91.776 331.902 91.728C329.934 89.28 327.75 86.784 325.35 84.24C322.95 81.696 320.406 79.488 317.718 77.616C317.67 77.952 317.622 78.504 317.574 79.272C317.526 79.992 317.406 80.832 317.214 81.792C317.07 82.704 316.926 83.688 316.782 84.744C316.686 85.752 316.566 86.712 316.422 87.624C316.278 88.536 316.134 89.352 315.99 90.072C315.894 90.84 315.798 91.392 315.702 91.728C315.654 91.968 315.534 92.28 315.342 92.664C315.198 93.096 314.982 93.504 314.694 93.888C314.406 94.272 314.094 94.56 313.758 94.752C313.422 94.944 313.062 94.968 312.678 94.824C312.678 94.632 312.654 94.344 312.606 93.96C312.606 93.624 312.606 93.24 312.606 92.808C312.606 92.376 312.606 91.968 312.606 91.584C312.654 91.2 312.678 90.912 312.678 90.72ZM347.573 93.816C345.941 92.52 344.645 91.008 343.685 89.28C342.773 87.552 342.077 85.704 341.597 83.736C341.309 83.928 340.925 84.144 340.445 84.384C340.013 84.576 339.557 84.768 339.077 84.96C338.597 85.104 338.117 85.2 337.637 85.248C337.157 85.296 336.821 85.248 336.629 85.104C336.437 84.96 336.365 84.72 336.413 84.384C336.509 84 336.869 83.424 337.493 82.656C337.589 82.56 337.829 82.32 338.213 81.936C338.645 81.504 339.101 81.072 339.581 80.64C340.061 80.16 340.493 79.728 340.877 79.344C341.261 78.96 341.501 78.72 341.597 78.624C341.981 77.616 342.221 76.536 342.317 75.384C342.413 74.184 342.461 72.96 342.461 71.712C342.509 70.464 342.581 69.216 342.677 67.968C342.821 66.72 343.133 65.544 343.613 64.44C343.853 63.864 344.333 63.12 345.053 62.208C345.821 61.248 346.685 60.36 347.645 59.544C348.653 58.68 349.637 57.912 350.597 57.24C351.557 56.52 352.397 56.088 353.117 55.944C353.885 55.8 354.437 55.992 354.773 56.52C355.109 57 355.085 57.96 354.701 59.4C354.269 61.08 353.621 62.736 352.757 64.368C351.893 66 350.981 67.608 350.021 69.192C349.109 70.728 348.245 72.288 347.429 73.872C346.613 75.408 346.013 76.992 345.629 78.624C345.437 79.488 345.341 80.52 345.341 81.72C345.341 82.92 345.485 84.12 345.773 85.32C346.061 86.52 346.493 87.624 347.069 88.632C347.693 89.64 348.557 90.336 349.661 90.72C350.861 91.2 352.085 91.32 353.333 91.08C354.629 90.84 355.853 90.384 357.005 89.712C358.205 89.04 359.333 88.224 360.389 87.264C361.493 86.256 362.525 85.224 363.485 84.168C364.445 83.112 365.285 82.104 366.005 81.144C366.725 80.136 367.325 79.296 367.805 78.624L368.885 79.632C369.125 79.824 368.933 80.472 368.309 81.576C367.733 82.68 366.869 83.928 365.717 85.32C364.565 86.712 363.197 88.128 361.613 89.568C360.077 90.96 358.493 92.136 356.861 93.096C355.229 94.104 353.597 94.728 351.965 94.968C350.333 95.208 348.869 94.824 347.573 93.816ZM345.629 68.4C345.581 68.64 345.557 69 345.557 69.48C345.557 69.96 345.557 70.464 345.557 70.992C345.557 71.52 345.557 72.024 345.557 72.504C345.557 72.984 345.581 73.32 345.629 73.512C346.877 71.352 348.029 69.072 349.085 66.672C350.189 64.272 351.053 61.848 351.677 59.4C350.765 59.688 349.949 60.168 349.229 60.84C348.509 61.464 347.909 62.208 347.429 63.072C346.949 63.888 346.541 64.776 346.205 65.736C345.917 66.648 345.725 67.536 345.629 68.4ZM370.599 93.816C369.687 93.096 368.991 92.112 368.511 90.864C368.079 89.616 367.839 88.44 367.791 87.336C367.791 86.232 367.935 85.368 368.223 84.744C368.559 84.12 369.015 84.096 369.591 84.672C369.495 86.784 369.879 88.392 370.743 89.496C371.607 90.552 372.639 91.224 373.839 91.512C375.039 91.8 376.335 91.728 377.727 91.296C379.119 90.864 380.295 90.192 381.255 89.28C382.263 88.368 382.959 87.264 383.343 85.968C383.727 84.624 383.511 83.208 382.695 81.72C381.735 80.52 380.607 79.392 379.311 78.336C378.063 77.28 376.791 76.224 375.495 75.168C374.199 74.112 372.951 73.032 371.751 71.928C370.551 70.824 369.495 69.648 368.583 68.4C368.486 68.304 368.438 68.16 368.438 67.968C368.438 67.728 368.486 67.56 368.583 67.464C368.871 67.128 369.255 66.6 369.735 65.88C370.215 65.112 370.791 64.248 371.463 63.288C372.135 62.328 372.831 61.344 373.551 60.336C374.319 59.328 375.039 58.368 375.711 57.456C376.383 56.496 376.959 55.656 377.439 54.936C377.967 54.168 378.375 53.616 378.663 53.28C379.191 52.56 379.743 52.152 380.319 52.056C380.895 51.96 381.687 52.032 382.695 52.272C382.647 52.464 382.503 52.824 382.263 53.352C382.023 53.832 381.831 54.144 381.687 54.288C381.399 54.768 380.823 55.584 379.959 56.736C379.095 57.888 378.159 59.136 377.151 60.48C376.191 61.776 375.279 63 374.415 64.152C373.599 65.256 373.023 66.024 372.687 66.456C372.351 66.888 372.447 67.416 372.975 68.04C373.551 68.664 374.319 69.384 375.279 70.2C376.287 70.968 377.439 71.832 378.735 72.792C380.031 73.704 381.255 74.712 382.407 75.816C383.559 76.92 384.519 78.096 385.287 79.344C386.103 80.592 386.535 81.936 386.583 83.376C386.679 84.768 386.271 86.256 385.359 87.84C384.495 89.376 382.935 91.008 380.679 92.736C380.007 93.312 379.239 93.792 378.375 94.176C377.559 94.56 376.695 94.8 375.783 94.896C374.919 95.04 374.031 95.04 373.119 94.896C372.207 94.752 371.367 94.392 370.599 93.816Z" fill="#5A58CF"/>
</svg>
